<svg xmlns="http://www.w3.org/2000/svg" width="855.003" height="1198.902"><path d="M14.194 38.785h833.321V180.75H14.194z" style="fill:#fff;stroke:#000;stroke-width:2.05129"/><path d="M1056.511 1253.993c-1.106-.005-83.236-46.492-182.511-103.306l-180.5-103.298-.252-303.695L692.997 440h727.006l-.251 303.704-.252 303.704-180.489 103.296c-99.269 56.813-181.394 103.293-182.5 103.289zm-28.511-92.27c1.324-.221 1.533-18.062 1.782-152.237l.283-151.986 79.92-45.484c43.956-25.017 80.392-45.642 80.968-45.834.727-.242 1.047 50.477 1.047 165.766 0 145.646.182 166.185 1.478 166.682.845.324 13.811-6.29 30.25-15.428l28.772-15.996.264-168.353.263-168.353 37.737-21.535 37.736-21.535.262-39.169.261-39.169-3.761 1.569c-2.07.862-18.946 10.291-37.505 20.953-18.559 10.662-33.971 19.386-34.25 19.386-.279 0-.507-18.675-.507-41.5V568h105v-61h-166v179.572l-23.75 13.578-23.75 13.579-.255-103.365-.254-103.364H890.975l2.627 4.162c1.445 2.289 12.057 16.014 23.583 30.5L938.14 568H969v245.856l-76.25 43.48-76.25 43.478-.252-196.907L815.995 507H755v505h2.75c1.79 0 39.059-20.538 106.75-58.827l104-58.826.5 117.459.5 117.46 28.5 16.353c15.675 8.995 29.175 16.242 30 16.104zm7.25-385.685-5.25 3.002V567h54l-.022 90.75-.023 90.75-21.727 12.268c-11.95 6.748-24.09 13.62-26.978 15.27z" style="fill:#f5d77f" transform="translate(-628.997 -132)"/><path d="M1056.5 343H629V132h855v211Zm-120.297-52.035c.937.02 2.883-.503 4.325-1.16 1.442-.657 3.263-2.434 4.047-3.95 1.054-2.038 1.425-6.803 1.425-18.305V252h34v17c0 15.594.163 17.163 1.975 18.975 1.086 1.086 3.12 2.262 4.519 2.613 1.4.351 3.907.074 5.573-.616 1.665-.69 3.702-2.56 4.528-4.155 1.268-2.452 1.454-8.353 1.202-38.11L997.5 212.5l-2.824-6.11c-1.57-3.398-4.9-8.148-7.5-10.7-2.572-2.525-7.376-5.838-10.676-7.362-4.983-2.302-7.356-2.77-14-2.763-6.65.007-9.052.49-14.234 2.852-3.832 1.747-7.94 4.665-10.658 7.57-2.432 2.601-5.309 6.48-6.392 8.621-1.083 2.14-2.475 6.277-3.093 9.191-.703 3.316-1.11 17.35-1.088 37.5.028 24.805.34 32.75 1.36 34.59.73 1.315 2.4 2.987 3.715 3.715 1.315.729 3.156 1.341 4.093 1.36zM963 233h-17v-10.032c0-6.164.521-11.28 1.351-13.266.743-1.778 2.984-4.667 4.979-6.418 1.995-1.752 5.212-3.483 7.149-3.846 1.936-.363 5.106-.363 7.042 0 1.937.363 5.154 2.094 7.15 3.846 1.994 1.751 4.235 4.64 4.978 6.418.83 1.987 1.351 7.102 1.351 13.266V233Zm72.3 57.965c.99.02 3.04-.606 4.555-1.39 1.516-.784 3.293-2.605 3.95-4.047.762-1.672 1.195-8.224 1.195-18.075V252h17.453c11.402 0 18.362-.414 20.075-1.195 1.442-.657 3.263-2.434 4.047-3.95.784-1.516 1.425-3.432 1.425-4.258 0-.827-.538-2.683-1.195-4.125-.657-1.442-2.434-3.263-3.95-4.047-2.078-1.075-7.072-1.425-20.305-1.425H1045v-8.75c0-6.914.413-9.422 1.956-11.951 1.073-1.761 3.3-3.899 4.946-4.75 2.365-1.221 6.616-1.549 20.098-1.549 12.844 0 17.785-.355 19.855-1.425 1.516-.784 3.293-2.605 3.95-4.047.657-1.442 1.195-3.48 1.195-4.528 0-1.048-.538-3.086-1.195-4.528-.657-1.442-2.434-3.263-3.95-4.047-2.06-1.065-6.943-1.425-19.346-1.425-14.141 0-17.554.311-23.112 2.107-3.587 1.159-8.402 3.541-10.701 5.294-2.299 1.754-5.441 5.067-6.984 7.364-1.556 2.316-3.443 7.193-4.24 10.955-1.084 5.11-1.433 14.783-1.42 39.28.015 25.08.321 33.046 1.344 34.89.728 1.314 2.4 2.986 3.714 3.714 1.314.729 3.2 1.341 4.19 1.36zm87.903 0c.937.02 2.883-.503 4.325-1.16 1.442-.657 3.263-2.434 4.047-3.95 1.054-2.038 1.425-6.803 1.425-18.305V252h34v17c0 15.594.163 17.163 1.975 18.975 1.086 1.086 3.12 2.262 4.519 2.613 1.4.351 3.907.074 5.573-.616 1.665-.69 3.702-2.56 4.528-4.155 1.268-2.452 1.454-8.353 1.202-38.11l-.297-35.207-2.824-6.11c-1.57-3.398-4.9-8.148-7.5-10.7-2.572-2.525-7.376-5.838-10.676-7.362-4.983-2.302-7.356-2.77-14-2.763-6.65.007-9.053.49-14.234 2.852-3.832 1.747-7.94 4.665-10.658 7.57-2.432 2.601-5.309 6.48-6.392 8.621-1.083 2.14-2.475 6.277-3.093 9.191-.703 3.316-1.11 17.35-1.088 37.5.027 24.805.34 32.75 1.36 34.59.73 1.315 2.4 2.987 3.715 3.715 1.315.729 3.156 1.341 4.093 1.36zM1150 233h-17v-10.032c0-6.164.521-11.28 1.351-13.266.743-1.778 2.983-4.667 4.979-6.418 1.995-1.752 5.212-3.483 7.149-3.846 1.936-.363 5.106-.363 7.042 0 1.937.363 5.154 2.094 7.15 3.846 1.994 1.751 4.235 4.64 4.978 6.418.83 1.987 1.351 7.102 1.351 13.266V233Zm-374.5 35H900v-58H651v58zm562 0H1462v-58h-249v58z" style="fill:#0ab9d8" transform="translate(-628.997 -132)"/><path d="M1057.506 1330.902c-1.103-.054-97.856-55.316-215.006-122.804l-213-122.707-.251-354.695L628.997 376h853.006l-.252 356.208-.251 356.209-210.994 121.292c-116.047 66.71-211.897 121.247-213 121.193zm-.995-76.91c1.106 0 83.231-46.475 182.5-103.288l180.489-103.296.252-303.704.251-303.704H692.997l.251 303.694.252 303.695L874 1150.687c99.275 56.814 181.405 103.302 182.511 103.306z" style="fill:#daa813" transform="translate(-628.997 -132)"/><path d="M1028 1161.723c-.825.138-14.325-7.109-30-16.104l-28.5-16.354-.5-117.459-.5-117.46-104 58.827C796.809 991.462 759.54 1012 757.75 1012H755V507H815.995l.253 196.907.252 196.907 76.25-43.479L969 813.856V568h-30.86l-20.955-26.338c-11.526-14.486-22.138-28.211-23.583-30.5L890.975 507h253.016l.254 103.364.255 103.365 23.75-13.579 23.75-13.578V507h166v61h-105v41.5c0 22.825.228 41.5.507 41.5s15.691-8.724 34.25-19.386c18.559-10.662 35.436-20.09 37.505-20.953l3.761-1.569-.261 39.17-.262 39.168-37.736 21.535-37.737 21.535-.263 168.353-.264 168.353-28.772 15.996c-16.439 9.139-29.405 15.752-30.25 15.428-1.296-.497-1.478-21.036-1.478-166.682 0-115.289-.32-166.008-1.047-165.766-.576.192-37.012 20.817-80.968 45.834l-79.92 45.484-.283 151.986c-.249 134.175-.458 152.016-1.782 152.237zm7.25-385.685c2.888-1.65 15.027-8.522 26.978-15.27l21.727-12.268.023-90.75L1084 567h-54v212.04l5.25-3.002z" style="fill:#004a79" transform="translate(-628.997 -132)"/></svg>