<svg xmlns="http://www.w3.org/2000/svg" width="2070" height="2500" viewBox="0 0 502.1 606.3"><path d="M251.1 606.3C78.8 494.3-11.5 321.7 1.2 101.3L135.2 0c32.5 31.6 73.4 47.1 115.8 47.4 42.4-.3 83.3-15.8 115.8-47.4l134.1 101.2c12.7 220.6-77.6 393.1-249.8 505.1z" style="fill-rule:evenodd;clip-rule:evenodd;fill:#ffd800"/><path d="M251.1 72.2c-40.2-.1-80.3-14.6-117.1-41.7L23.8 113.9C13.1 288.8 84.3 467.8 251.1 577.5 417.8 467.8 489 288.7 478.4 113.9L368.1 30.4c-36.7 27.2-76.8 41.7-117 41.8z" style="fill:#0065b2;fill-rule:evenodd;clip-rule:evenodd"/><path d="M147.9 271.9h-33.5v-15H96.1V312h18.2v-14.8h33.6v21.5l-18.3 18.5H80.9l-18.3-18.5V250l18.3-18.5h48.7l18.3 18.5v21.9zm74.7 35.7 1.9 4.5h-5.2v25.2h42.1v-25.2h-4.6L232.2 257h5.6v-25.3H177V257h5.6L158 312.1h-4.6v25.2h42.2l-.1-25.2h-5.2l1.9-4.5h30.4zm-21.8-20.3 6.7-12.5 6.5 12.5h-13.2zM440 231.6l.1 25.3h-5.4v64.8l-13.6 15.5h-42.8l-17-15.7V294h30.1v17.9h12.2v-55.1h-5.4v-25.3H440v.1zm-171.5 0h67l18.3 18.2v26.4l-7.3 5.3 7.3 5.2v32l-18.4 18.6h-66.9v-25.2h8.5l.1-55.2h-8.6v-25.3zm51.8 39.9H307V257h13.3v14.5zm0 25.8v14.8H307v-14.8h13.3zM132.5 50.5l3.9 12.2h12.9l-10.5 7.6 4.1 12.1-10.5-7.4-10.2 7.4 3.9-12.1-10.5-7.6h13l3.9-12.2zm0 40.6 3.9 12.2h12.9l-10.5 7.5 4.1 12.2-10.5-7.4-10.2 7.4 3.9-12.1-10.5-7.6h13l3.9-12.2zm55.4 0 3.9 12.2h12.9l-10.5 7.5 4.1 12.2-10.5-7.4-10.2 7.4 3.9-12.1-10.5-7.6h13l3.9-12.2zm55.4 0 4 12.2h12.8l-10.5 7.5 4.1 12.2-10.5-7.4L233 123l3.9-12.1-10.5-7.6h13l3.9-12.2zm55.5 0 3.9 12.2h12.8l-10.4 7.5 4 12.2-10.4-7.4-10.3 7.4 4-12.1-10.6-7.6h13l4-12.2zm51.6 0 3.9 12.2h12.8l-10.5 7.5 4.1 12.2-10.4-7.4L340 123l4-12.1-10.5-7.6h12.9l4-12.2zm55.4 0 3.9 12.2h12.8l-10.4 7.5 4 12.2-10.4-7.4-10.3 7.4 4-12.1-10.5-7.6h12.9l4-12.2zm-328.7 0 3.9 12.2h12.8l-10.4 7.5 4.1 12.2-10.5-7.4-10.2 7.4 3.9-12.1-10.5-7.6h13l3.9-12.2zm-18.9 44.2 3.9 12.2h12.8L64.5 155l4 12.1-10.4-7.3-10.3 7.3 4-12-10.5-7.6 12.9-.1 4-12.1zm51.4 0 3.9 12.2h12.8l-10.5 7.5 4.1 12.1-10.4-7.3-10.3 7.3 4-12-10.6-7.6 13-.1 4-12.1zm55.2 0 3.9 12.2h12.8l-10.4 7.5 4 12.1-10.4-7.3-10.3 7.3 4-12-10.5-7.6 12.9-.1 4-12.1zm55.2 0 3.9 12.2h12.8l-10.4 7.5 4 12.1-10.4-7.3-10.3 7.3 4-12-10.5-7.6 12.9-.1 4-12.1zm55.2 0 3.9 12.2h12.8l-10.4 7.5 4 12.1-10.4-7.3-10.3 7.3 4-12-10.5-7.6 12.9-.1 4-12.1zm55.2 0 3.9 12.2h12.8l-10.4 7.5 4 12.1-10.4-7.3-10.3 7.3 4-12-10.5-7.6 13-.1 3.9-12.1zm55.2 0 3.9 12.2h12.8l-10.4 7.5 4.1 12.1-10.5-7.3-10.2 7.3 3.9-12-10.5-7.6 13-.1 3.9-12.1zm59 0 3.9 12.2h12.9l-10.5 7.5 4.1 12.1-10.5-7.3-10.2 7.3 3.9-12-10.5-7.6 13-.1 3.9-12.1zM58.2 180.4l3.9 12.1h12.8l-10.4 7.6 4 12.1-10.4-7.3-10.3 7.3 4-12-10.5-7.7h12.9l4-12.1zM106 349.9l3.9 12.1h12.8l-10.5 7.6 4.1 12.1-10.5-7.3-10.2 7.3 4-12L89 362h13l4-12.1zm61.3 0 3.9 12.1H184l-10.5 7.6 4.1 12.1-10.4-7.3-10.3 7.3 4-12-10.5-7.7h12.9l4-12.1zm61.3 0 3.9 12.1h12.8l-10.4 7.6 4 12.1-10.4-7.3-10.3 7.3 4-12-10.5-7.7h12.9l4-12.1zm61.3 0 3.9 12.1h12.8l-10.4 7.6 4 12.1-10.4-7.3-10.3 7.3 4-12L273 362h12.9l4-12.1zm61.3 0 3.9 12.1h12.8l-10.4 7.6 4 12.1-10.4-7.3-10.3 7.3 4-12-10.5-7.7h13l3.9-12.1zm-214.6 34.2 3.9 12.2h12.9l-10.5 7.6L147 416l-10.5-7.4-10.2 7.4 3.9-12.1-10.5-7.6h13l3.9-12.2zm61.3 0 3.9 12.2h12.9l-10.5 7.6 4.1 12.1-10.5-7.4-10.2 7.4 3.9-12.1-10.5-7.6h13l3.9-12.2zm61.3 0 3.9 12.2H276l-10.5 7.6 4.1 12.1-10.5-7.4-10.2 7.4 3.9-12.1-10.5-7.6h13l3.9-12.2zm61.3 0 3.9 12.2h12.9l-10.5 7.6 4.1 12.1-10.5-7.4-10.2 7.4 3.9-12.1-10.5-7.6h13l3.9-12.2zm-156.8 41.5 3.9 12.2h12.8l-10.5 7.5 4.1 12.2-10.5-7.4-10.2 7.4 4-12.1-10.6-7.6h13l4-12.2zm61.3 0 3.9 12.2h12.8l-10.4 7.5 4 12.2-10.4-7.4-10.3 7.4 4-12.1-10.5-7.6H221l4-12.2zm61.3 0 3.9 12.2H303l-10.4 7.5 4 12.2-10.4-7.4-10.3 7.4 4-12.1-10.5-7.6h12.9l4-12.2zm-91.1 37.9 3.9 12.1H212l-10.5 7.6 4.1 12.1-10.5-7.3-10.2 7.3 3.9-12-10.5-7.7h13l3.9-12.1zm61.3 0 3.9 12.1h12.9l-10.5 7.6 4.1 12.1-10.5-7.3-10.2 7.3 3.9-12-10.5-7.7h13l3.9-12.1zM223.2 495l3.9 12.2h12.8l-10.5 7.6 4.1 12.1-10.4-7.4-10.3 7.4 4-12.1-10.5-7.6h12.9l4-12.2zm29.7 28 3.9 12.2h12.9l-10.5 7.5 4.1 12.1-10.5-7.3-10.2 7.3 3.9-12-10.5-7.6 13-.1 3.9-12.1zm31.6-28 3.9 12.2h12.8l-10.4 7.6 4 12.1-10.4-7.4-10.3 7.4 4-12.1-10.5-7.6h12.9l4-12.2zm33.3-31.5 3.9 12.1h12.9l-10.5 7.6 4.1 12.1-10.5-7.3-10.2 7.3 3.9-12-10.5-7.7h13l3.9-12.1zm29.8-37.9 3.9 12.2h12.8l-10.4 7.5 4 12.2-10.4-7.4-10.3 7.4 4-12.1-10.5-7.6h12.9l4-12.2zm34.2-41.5 4 12.2h12.8l-10.5 7.6 4.1 12.1-10.5-7.4-10.2 7.4 3.9-12.1-10.5-7.6h13l3.9-12.2zm26.9-34.2 3.9 12.1h12.8l-10.4 7.6 4 12.1-10.4-7.3-10.3 7.3 4-12-10.5-7.7h12.9l4-12.1zM109.6 180.4l3.9 12.1h12.8l-10.5 7.6 4.1 12.1-10.4-7.3-10.3 7.3 4-12-10.6-7.7h13l4-12.1zm55.2 0 3.9 12.1h12.8l-10.4 7.6 4 12.1-10.4-7.3-10.3 7.3 4-12-10.5-7.7h12.9l4-12.1zm55.2 0 3.9 12.1h12.8l-10.4 7.6 4 12.1-10.4-7.3-10.3 7.3 4-12-10.5-7.7H216l4-12.1zm55.2 0 3.9 12.1h12.8l-10.4 7.6 4 12.1-10.4-7.3-10.3 7.3 4-12-10.5-7.7h12.9l4-12.1zm55.2 0 3.9 12.1h12.8l-10.4 7.6 4 12.1-10.4-7.3-10.3 7.3 4-12-10.5-7.7h13l3.9-12.1zm55.2 0 3.9 12.1h12.8l-10.4 7.6 4.1 12.1-10.5-7.3-10.2 7.3 3.9-12-10.5-7.7h13l3.9-12.1zm59 0 3.9 12.1h12.9l-10.5 7.6 4.1 12.1-10.5-7.3-10.2 7.3 3.9-12-10.5-7.7h13l3.9-12.1zM366.9 50.5l3.9 12.2h12.9l-10.5 7.6 4.1 12.1-10.5-7.4-10.2 7.4 3.9-12.1-10.5-7.6h13l3.9-12.2z" style="fill:#fdcc25;fill-rule:evenodd;clip-rule:evenodd"/></svg>