<svg xmlns="http://www.w3.org/2000/svg" id="Layer_1" fill="#fff989" stroke="#fff989" data-name="Layer 1" viewBox="0 0 24 24"><g id="SVGRepo_iconCarrier"><defs><style>.cls-1{fill:none;stroke:#fff989;stroke-miterlimit:10;stroke-width:2px}</style></defs><path d="M8.5 17c-2.73-.52-4.33-1.56-5-3" class="cls-1"/><path d="M4.5 10c-1.15-1.92-1.7-5.38-1-6 3.1 2.5 6.12 4.09 9 4 0 0 0-5 4-5a4.38 4.38 0 0 1 3 1h3l-1 3a13.47 13.47 0 0 1-4 11c-5 5-13 4-16 0" class="cls-1"/><path d="M5.5 14a7.57 7.57 0 0 1-3-5" class="cls-1"/></g></svg>