<svg xmlns="http://www.w3.org/2000/svg" width="72.234" height="182.728"><g transform="matrix(3.65854 0 0 3.65854 -.498 -3667.276)"><path d="m9.826 1048.364-6.343.016c-.189 0-.375.019-.457.31l-.677 1.994c-.059.205.144.403.274.475 1.024.702 5.074.83 7.166.854v.01h.901v-.01c2.092-.023 6.143-.152 7.166-.854.13-.073.333-.27.274-.475l-.676-1.994c-.082-.292-.268-.305-.458-.31l-6.342-.016h-.414z" style="fill:#357050;fill-opacity:1;stroke:#2b6646;stroke-width:.07243127px;stroke-linecap:butt;stroke-linejoin:miter;stroke-opacity:1"/><path d="m9.888 1046.33-5.488.013c-.164 0-.325.015-.396.268l-.585 1.726c-.052.178.124.348.237.411.885.607 4.39.718 6.2.738v.01h.78v-.01c1.81-.02 5.315-.13 6.2-.738.113-.062.288-.233.237-.411l-.585-1.726c-.071-.252-.232-.263-.396-.268l-5.488-.014h-.358Z" style="fill:#fd5;stroke:#ffd42a;stroke-width:.08187283;stroke-linecap:butt;stroke-linejoin:miter;stroke-miterlimit:4;stroke-dasharray:none;stroke-opacity:1"/><path d="m9.905 1044.174-5.075.012c-.152 0-.3.014-.366.248l-.542 1.596c-.047.165.115.322.22.38.818.562 4.06.665 5.734.683v.01h.72v-.01c1.675-.019 4.916-.121 5.735-.683.104-.058.267-.215.22-.38l-.542-1.596c-.066-.233-.214-.244-.366-.248l-5.075-.012h-.332z" style="fill:#357050;fill-opacity:1;stroke:#2b6646;stroke-width:.07571877;stroke-linecap:butt;stroke-linejoin:miter;stroke-miterlimit:4;stroke-dasharray:none;stroke-opacity:1"/><ellipse cx="10.245" cy="1044.201" rx="5.473" ry="1.061" style="fill:none;stroke:#fc0;stroke-width:.0609172;stroke-linecap:round;stroke-linejoin:round;stroke-miterlimit:4;stroke-dasharray:none;stroke-opacity:1"/><path d="M4.765 1044.18c.685-1.426.802-3.014 1.184-4.527l.207-.012c-.696-2.477.716-5.668-1.022-7.98v-.673c-.684-.991-1.075-2.055-1.371-3.143v-.776c-.255-.953-.471-1.923-.556-2.95l-.285-3.97-.931-1.345-.556-.518-.647-1.616.297-.957h17.81l-.633 3.168v1.113l-1.707 5.122-.246 3.026-1.5 4.657-.13 1.41-.491 2.043-.078 1.268.479 1.021v1.475c.415 1.381 1.048 2.749 1.112 4.152.13.743-3.38 1.11-5.42 1.09-.788.052-5.466-.143-5.516-1.077z" style="fill:#fd5;stroke:#ffd42a;stroke-width:.07243127px;stroke-linecap:butt;stroke-linejoin:miter;stroke-opacity:1"/><circle cx="10.008" cy="1012.259" r="9.561" style="fill:#fff6d5;stroke:#fc0;stroke-width:.07476954;stroke-linecap:round;stroke-linejoin:round;stroke-miterlimit:4;stroke-dasharray:none;stroke-opacity:1"/><path d="m16.805 1018.96.163-.261-1.077.424-.294-.065.425-.457-.294-.588-1.077.784-2.09-.065-.978.49-.523 1.762 1.301.538c2.31-.686 3.35-1.63 4.444-2.562z" style="fill:#ffd42a;stroke:#fc0;stroke-width:.0762846px;stroke-linecap:butt;stroke-linejoin:miter;stroke-opacity:1"/><path d="m18.793 1012.828-.79 1.048v2.121l-1.512 2.599-.272 1.733-1.72 3.841.244-.919-.516.19-.007-.325.394-.238.279-1.25-.104-.633-.596-1.223-1.693-.025-.978.704-.031 1.268.744 1.566v.01l-.97-.532-.634-2.535.18-.452-1.563-3.584.283-1.072-.231-.829-.467-.554-.504-.027.414.751-.634-1.086-.285-.013.271.853-.31-.957-.258.337.22.878-.272-1.046-.233.44.039.104-.154.14.192 1.243 1.023 1.229.335 3.816.31.516 1.075 4.604.53.751.634 4.437-2.535 5.561-1.449.71-1.215 4.012-.362.063-.634 3.363 1.512-2.406 3.092-3.893.452-.324 1.707-3.84-.71 4.436-1.372.466-2.03 3.323-.802.26-.738 2.211 2.212-1.876 4.115-3.79 1.344-3.245.349-4.878 1.28-4.318.467-.596 1.85-5.498.192-.4.66-3.608.634-.854-.142-.62.206-.66-.335-.026-.39.697.428-.801-.065-.324-.039-.49-.4.595-.064.543.039-.543.425-.62-.115-.505z" style="fill:#ffe680;stroke:#fc0;stroke-width:.07243127px;stroke-linecap:butt;stroke-linejoin:miter;stroke-opacity:1"/><path d="m14.724 1023.256.227-.084-.443.983zm-1.31 1.74-1.016-1.43.272-1.157-.343-.072-.452-.563h.44l.49-1.435.337.213.84-.381.227.44-1.164.02-.653 1.209-.395-.012.35.407.433.123-.032.679 1.597-.2.284-1.106-.232 1.177-1.527.601zm.808-1.76.026 1.436-.472.356.246-.575zm-.718-1.073c.242-.182.5-.317.86-.142-.268.242-.557.262-.86.142zm.524-.77.013.136-.265.046zm-.162-.517.065.427.071-.252.414.078zm-1.08.53.783-.594.136.569-.227-.285z" style="fill:#fc0;stroke:#fc0;stroke-width:.07243127px;stroke-linecap:butt;stroke-linejoin:miter;stroke-opacity:1"/><path d="M5.232 1044.469c.215.12.449.197.705.225l.701-2.282zM14.271 1031.557l.362 1.523-.12 1.161-.406 1.578.01-1.731zM15.772 1026.56l.428 1.25.219-2.532-.296.734zM7.497 1044.017c.11-.055 2.447-1.134 2.447-1.134l-.494.841 3.037-1.115-4.592 2.396c1.532.21 2.11.13 3.532.027l2.468-1.326-.457 1.138c.777-.047 1.523-.166 2.094-.603-.024-1.345-.84-3.135-1.271-4.258l.014-1.307-.581-.965-.317 2.106zM8.746 1034.725l.648-4.836-1.744-3.098.452-1.08-1.178-.067-2.087-3.117-.475-1.194-1.268-1.131 2.122.731c1.402 1.178 3.367 5.417 4.729 5.537l.507 4.13zM5.71 1032.1l.585 1.875-.092 2.689c-.124 1.24-.031 2.136.092 2.716l1.126-4.335zM4.045 1027.07l4.088 7.033.549 1.427-.832-1.253-2.223-2.726-1.61-3.658z" style="fill:#fff6d5;stroke:#fea;stroke-width:.07243127px;stroke-linecap:butt;stroke-linejoin:miter;stroke-opacity:1"/><path d="m8.48 1032.502-2.752-3.512-2.25-5.213 2.927 4.83 1.838 2.359z" style="fill:#fff6d5;stroke:#fea;stroke-width:.07243127px;stroke-linecap:butt;stroke-linejoin:miter;stroke-opacity:1"/><path d="m16.176 1004.955.254.753.914.881.049 1.093-.343-.685-.588-.702-.049.67.865 1.142-.832.13-.522.408-.637-.865.327.735-.033.49-.539.979-.783.326-.163.261v.996l-.75.326-.654.31-.326-1.044-.588-.474v-.57l-.244-.131-.735.718-.865.212v.783l-.848 1.11-.719-.636.278-1.16-.147-.978-.62.473v-.914l-.735-.032-.13-.36-1.371-.374.44.669.93.342.278.327-1.322.44-.049.392-.8.294-.799-1.126-.392-1.518-.147 1.175.523 1.159.718.653.718.017-.229.473-.506.636v.49l-.587.686.033.391-.196.522.114.31.457.164-.016.685-.294.36-.033.88.294 1.061-.277.164-.914-.18-2.22-3.248-.8-2.53h-.09c.054-3.331 1.313-5.455 2.811-7.006 3.8-3.934 10.326-3.188 12.89-.55z" style="fill:#ffd42a;stroke:#fc0;stroke-width:.0762846px;stroke-linecap:butt;stroke-linejoin:miter;stroke-opacity:1"/><path d="m7.274 1006.1-.408-.294-.702.652.343.441-.245.163.424.245.376-.62-.327-.18.196-.293zM3.006 1005.837l-.065.375-.326.457-.245.098.081.67h.229l.13-.441.31-.261-.032.522.375-.082.115-.685.408.065-.376.718.849.163-.653.571H2.713l-.017-.196-.391-.097-.131-.881" style="fill:#fff6d5;fill-opacity:1;stroke:#fc0;stroke-width:.0762846px;stroke-linecap:butt;stroke-linejoin:miter;stroke-opacity:1"/><path d="m6.262 1015.304.539.392.065.408.277.342-.293 1.322h-.588l-.016-.701-.343-.261.016-.278.425-.228zM16.577 1008.955l.016.914-.375.262-.294-.49.016-.424.36-.31zM15.907 1010.718l.343-.196.44.212-.538.572-.342.017zM15.091 1010.93l-.163.44-.408.131-.163-.603.212-.196.278.032zM13.46 1012.366l-.147.98-.719-.294.245-.588zM14.047 1013.786c.065-.017 1.403-.881 1.403-.881l.784.294s-.604.571-.539.571c.066 0 1.388.033 1.388.033l-2.008 1.012zM13.508 1013.819l-1.158-.506.13.555.522.604.082.538.963.767.636-.359-.897-.604zM15.287 1015.484l-.31.26-.506.066.408.359.898-.05.31.262 1.11-.636-.18-.245-1.338.228zM17.98 1009.168l-.032 1.436-.914.685.587.032-.163.784.849-1.567zM18.502 1008.384l-.49.555.262.065.033.294.522-.392-.327-.196zM16.936 1011.518l-.457.228-.098.457.522-.26.228-.034z" style="fill:#ffd42a;stroke:#fc0;stroke-width:.0762846px;stroke-linecap:butt;stroke-linejoin:miter;stroke-opacity:1"/></g></svg>